<?xml version="1.0" encoding="UTF-8"?>
<svg id="Lager_1" data-name="Lager 1" xmlns="http://www.w3.org/2000/svg" viewBox="0 0 300 219">
  <defs>
    <style>
      .cls-1 { fill: #fff; }
    </style>
  </defs>
  <g id="oYLcjl">
    <g>
      <rect class="cls-1" x="299.21" y="218.55" width=".41" height=".41" transform="translate(-66.99 275.79) rotate(-45)"/>
      <g>
        <path class="cls-1" d="M230.69,207.45c-55.51-5.29-110.64-5.26-165.75.44-22.2,2.3-43.61,5.8-65.24,11.07,7.85-5.82,16.62-9.73,26.04-12.94,16.92-5.76,34.02-9.49,51.94-11.97,47.67-6.6,95.94-6.65,143.61-.07,17.93,2.47,35.09,6.11,52.01,11.92,9.15,3.14,17.98,6.65,25.67,12.75-23.01-5.34-45-8.81-68.29-11.19Z"/>
        <path class="cls-1" d="M120.47,183.44c-25.46,1.41-50.4,4.41-75.42,10.4V48.95s75.4-.03,75.4-.03l.02,134.51ZM59.45,62.28v16.65h16.65v-16.65h-16.65ZM89.41,62.28v16.63h16.61v-16.63h-16.61ZM76.21,113.13l-.16-16.64h-16.54s.01,16.61.01,16.61l16.69.03ZM106.02,96.49h-16.61s.01,16.61.01,16.61h16.61s-.01-16.61-.01-16.61ZM76.12,147.19l.08-16.41-16.68-.02-.07,16.53,16.67-.11ZM106.03,147.33l.2-16.55-16.99-.03.19,16.57h16.6ZM76.09,164.91l-16.64.02.02,16.63,16.64-.02-.02-16.63ZM106.01,164.9h-16.58v16.69h16.58v-16.69Z"/>
        <g>
          <path class="cls-1" d="M170.06,183l-13.36-.26v-12.27s-16.59-.03-16.59-.03l-.03,12.31-14.4.44.06-53.64-.03-40.98h75.36s-.02,96.43-.02,96.43l-14.41-1.06-.04-13.46h-16.53s0,12.52,0,12.52ZM156.66,118.4l-.07-16.45h-16.49s.01,16.66.01,16.66l16.55-.2ZM186.7,118.48l-.1-16.46-16.54.03.02,14.7M140.09,137.38l.12,15.43,16.46-.05v-16.56M170.07,136.48l-.03,16.31,16.62-.04-.12-16.27"/>
          <path class="cls-1" d="M214.32,121.54v-14.83s-7.09-.06-7.09-.06v-15.93s7.1-.07,7.1-.07l.02-14.91-14.96-.02-.17,6.72h-12.9s.04-18.83.04-18.83h68.09s-.02,130.23-.02,130.23c-15.67-3.71-31.15-6.35-46.97-8.06,0-.61-.08-1.42-.08-2.22l6.96-.09v-14.95s-7.1-.06-7.1-.06l-.05-15.93,7.15-.08v-14.82s-7.08-.07-7.08-.07l-.07-15.83M226.38,75.71v15h15.01v-15h-15.01ZM241.37,121.54l.03-14.94h-15.01s.21,14.77.21,14.77l14.77.17ZM241.41,137.51h-15.02v15.04h15.02v-15.04ZM241.41,168.46h-15.03s0,14.98,0,14.98h15.03s0-14.98,0-14.98Z"/>
          <path class="cls-1" d="M180.14,82.41l-53.52.04v-39.62s-9.88-.09-9.88-.09l.05-42.44h75.36s-.02,57.12-.02,57.12l-11.97.06-.03,24.93ZM147.75,13.69h-16.55s0,16.63,0,16.63h16.55s0-16.63,0-16.63ZM161.15,13.69v16.62s16.57,0,16.57,0V13.7s-16.57,0-16.57,0ZM131.16,47.94v16.6s16.58,0,16.58,0v-16.6s-16.58,0-16.58,0ZM161.15,47.95v16.61h16.56v-16.61h-16.56Z"/>
        </g>
      </g>
    </g>
  </g>
</svg>
