<svg xmlns="http://www.w3.org/2000/svg" viewBox="0 0 600 820">
  <defs>
    <linearGradient id="g" x1="0" y1="0" x2="1" y2="1">
      <stop offset="0" stop-color="hsl(84,78%,72%)"/>
      <stop offset="1" stop-color="hsl(355,72%,55%)"/>
    </linearGradient>
  </defs>
  <rect width="600" height="820" fill="url(#g)"/>
  <circle cx="300" cy="255" r="112" fill="#ffe3d8" opacity=".96"/>
  <path d="M188 252c15-111 211-125 228 0 15-79-17-154-115-154-92 0-127 72-113 154z" fill="#70433d" opacity=".75"/>
  <rect x="186" y="360" width="228" height="310" rx="96" fill="#ffffff" opacity=".88"/>
  <path d="M150 690c55-80 91-109 150-109s95 29 150 109v130H150z" fill="#332a3a" opacity=".82"/>
  <g fill="#fff" opacity=".82">
    <rect x="70" y="80" width="42" height="250" rx="8"/>
    <rect x="126" y="130" width="42" height="200" rx="8"/>
    <rect x="488" y="105" width="42" height="225" rx="8"/>
  </g>
  <text x="300" y="765" text-anchor="middle" font-family="Arial, sans-serif" font-size="44" font-weight="700" fill="#fff">Profil 3</text>
</svg>
